<svg width="25" height="24" viewBox="0 0 25 24" fill="none" xmlns="http://www.w3.org/2000/svg">
<path d="M12.5 11.2C13.5609 11.2 14.5783 11.6214 15.3284 12.3716C16.0786 13.1217 16.5 14.1391 16.5 15.2V20H8.5V15.2C8.5 14.1391 8.92143 13.1217 9.67157 12.3716C10.4217 11.6214 11.4391 11.2 12.5 11.2ZM7.1304 13.6048C7.00309 14.0342 6.92788 14.4774 6.9064 14.9248L6.9 15.2V20H4.5V16.4C4.49984 15.7101 4.75442 15.0443 5.21491 14.5306C5.67539 14.0168 6.30936 13.6911 6.9952 13.616L7.1312 13.6048H7.1304ZM17.8696 13.6048C18.5815 13.6482 19.2501 13.9616 19.7389 14.481C20.2277 15.0004 20.4999 15.6868 20.5 16.4V20H18.1V15.2C18.1 14.6456 18.02 14.1104 17.8696 13.6048ZM7.3 8.8C7.83043 8.8 8.33914 9.01071 8.71421 9.38579C9.08929 9.76086 9.3 10.2696 9.3 10.8C9.3 11.3304 9.08929 11.8391 8.71421 12.2142C8.33914 12.5893 7.83043 12.8 7.3 12.8C6.76957 12.8 6.26086 12.5893 5.88579 12.2142C5.51071 11.8391 5.3 11.3304 5.3 10.8C5.3 10.2696 5.51071 9.76086 5.88579 9.38579C6.26086 9.01071 6.76957 8.8 7.3 8.8ZM17.7 8.8C18.2304 8.8 18.7391 9.01071 19.1142 9.38579C19.4893 9.76086 19.7 10.2696 19.7 10.8C19.7 11.3304 19.4893 11.8391 19.1142 12.2142C18.7391 12.5893 18.2304 12.8 17.7 12.8C17.1696 12.8 16.6609 12.5893 16.2858 12.2142C15.9107 11.8391 15.7 11.3304 15.7 10.8C15.7 10.2696 15.9107 9.76086 16.2858 9.38579C16.6609 9.01071 17.1696 8.8 17.7 8.8ZM12.5 4C13.3487 4 14.1626 4.33714 14.7627 4.93726C15.3629 5.53737 15.7 6.35131 15.7 7.2C15.7 8.04869 15.3629 8.86263 14.7627 9.46274C14.1626 10.0629 13.3487 10.4 12.5 10.4C11.6513 10.4 10.8374 10.0629 10.2373 9.46274C9.63714 8.86263 9.3 8.04869 9.3 7.2C9.3 6.35131 9.63714 5.53737 10.2373 4.93726C10.8374 4.33714 11.6513 4 12.5 4Z" fill="white"/>
</svg>
