<svg width="210" height="75" viewBox="0 0 210 75" fill="none" xmlns="http://www.w3.org/2000/svg">
<defs>
<clipPath id="clip0_19_4196">
<rect width="210" height="46.875" fill="white"/>
</clipPath>
</defs>
<g clip-path="url(#clip0_19_4196)">
<path d="M22.3124 5.99805H34.098C39.4857 5.99805 42.1796 8.67662 43.1898 10.0159L31.4042 21.7347L22.3124 5.99805Z" fill="white"/>
<path d="M0.0882034 16.7123V26.757L6.82282 20.0605L0.424934 43.498H11.8738L12.2947 41.8239L21.3023 5.99805L11.8738 5.99805L0.0882034 16.7123Z" fill="white"/>
<path d="M11.8738 43.498H26.3532L38.1388 33.1186C39.4857 36.5784 43.5938 43.498 49.2509 43.498H63.0569L50.2611 21.7347L67.7711 5.99805H50.9346L12.2947 41.8239L11.8738 43.498Z" fill="white"/>
<path d="M62.1445 44.2223L71.5727 5.66308H92.7813C98.263 5.66308 102.075 6.61788 104.216 8.52748C106.367 10.4004 107.083 12.8057 106.365 15.7436C105.889 17.6899 104.895 19.4342 103.384 20.9766C101.919 22.4822 100.021 23.6757 97.6882 24.5571C95.3557 25.4384 92.6394 25.8791 89.5394 25.8791L91.4008 22.9045C94.5008 22.9045 97.0628 23.3269 99.0868 24.1715C101.149 25.0161 102.587 26.2463 103.401 27.8622C104.263 29.4412 104.42 31.3508 103.872 33.591C103.055 36.9327 100.981 39.5401 97.6497 41.413C94.3564 43.2858 89.9689 44.2223 84.4872 44.2223H62.1445ZM77.5229 35.1333H85.5754C87.0498 35.1333 88.209 34.8763 89.053 34.3621C89.9348 33.848 90.4969 33.0952 90.7393 32.1037C90.9818 31.1121 90.7878 30.3593 90.1574 29.8452C89.5648 29.3311 88.5314 29.074 87.057 29.074H78.0972L80.1984 20.4808H87.3435C88.8557 20.4808 90.0104 20.2421 90.8076 19.7647C91.6516 19.2506 92.1858 18.5345 92.4103 17.6164C92.6438 16.6616 92.4597 15.9455 91.8582 15.4681C91.2944 14.9907 90.2564 14.752 88.7442 14.752H82.5064L77.5229 35.1333ZM124.179 19.9851H141.872L139.582 29.3494H121.889L124.179 19.9851ZM121.558 34.4172H141.405L139.008 44.2223H106.004L115.432 5.66308H147.699L145.301 15.4681H126.191L121.558 34.4172ZM152.779 44.2223L159.743 15.7436H148.118L150.582 5.66308H187.215L184.751 15.7436H173.126L166.162 44.2223H152.779Z" fill="#1EA4FF"/>
</g>
<path d="M8.35967 60.1H16.0426L15.2893 62.9755H7.60636L8.35967 60.1ZM6.40311 68.6159H2.69884L6.75511 53.1323H18.8511L18.0978 56.0079H9.70607L6.40311 68.6159ZM24.8512 68.8814C23.5859 68.8814 22.4643 68.6823 21.4863 68.2842C20.5235 67.886 19.7404 67.3256 19.137 66.6031C18.5489 65.8805 18.1613 65.0326 17.9742 64.0593C17.8023 63.0861 17.867 62.0244 18.1683 60.8741C18.4697 59.7239 18.9612 58.6622 19.643 57.6889C20.3401 56.7157 21.1796 55.8678 22.1615 55.1452C23.1435 54.4226 24.2202 53.8623 25.3916 53.4641C26.563 53.066 27.7736 52.8669 29.0236 52.8669C30.2889 52.8669 31.3953 53.066 32.3428 53.4641C33.3056 53.8623 34.081 54.4226 34.6692 55.1452C35.2726 55.8678 35.6678 56.7157 35.8549 57.6889C36.0459 58.6475 35.9888 59.7092 35.6836 60.8741C35.3823 62.0244 34.8812 63.0935 34.1803 64.0815C33.4832 65.0547 32.6437 65.9026 31.6617 66.6252C30.6989 67.333 29.6317 67.886 28.4604 68.2842C27.3042 68.6823 26.1012 68.8814 24.8512 68.8814ZM25.628 65.8289C26.3444 65.8289 27.0308 65.7109 27.6871 65.475C28.3587 65.239 28.9811 64.8999 29.5543 64.4575C30.1275 64.0151 30.6153 63.4916 31.0176 62.887C31.4351 62.2824 31.7404 61.6115 31.9336 60.8741C32.1267 60.1368 32.1729 59.4659 32.0722 58.8613C31.9867 58.2567 31.7732 57.7332 31.4318 57.2908C31.1056 56.8484 30.6685 56.5092 30.1206 56.2733C29.5726 56.0374 28.9404 55.9194 28.224 55.9194C27.5075 55.9194 26.8135 56.0374 26.1419 56.2733C25.4856 56.5092 24.8708 56.8484 24.2976 57.2908C23.7244 57.7332 23.229 58.2567 22.8115 58.8613C22.4092 59.4659 22.1115 60.1368 21.9183 60.8741C21.7291 61.5967 21.6752 62.2677 21.7569 62.887C21.8576 63.4916 22.0711 64.0151 22.3973 64.4575C22.7387 64.8999 23.1834 65.239 23.7313 65.475C24.2793 65.7109 24.9115 65.8289 25.628 65.8289ZM44.1442 68.8814C42.879 68.8814 41.7574 68.6823 40.7793 68.2842C39.8166 67.886 39.0335 67.3256 38.4301 66.6031C37.842 65.8805 37.4543 65.0326 37.2672 64.0593C37.0954 63.0861 37.1601 62.0244 37.4614 60.8741C37.7627 59.7239 38.2543 58.6622 38.9361 57.6889C39.6331 56.7157 40.4726 55.8678 41.4546 55.1452C42.4366 54.4226 43.5133 53.8623 44.6846 53.4641C45.856 53.066 47.0667 52.8669 48.3167 52.8669C49.5819 52.8669 50.6883 53.066 51.6359 53.4641C52.5986 53.8623 53.3741 54.4226 53.9622 55.1452C54.5656 55.8678 54.9609 56.7157 55.148 57.6889C55.3389 58.6475 55.2818 59.7092 54.9767 60.8741C54.6753 62.0244 54.1742 63.0935 53.4733 64.0815C52.7763 65.0547 51.9368 65.9026 50.9548 66.6252C49.9919 67.333 48.9248 67.886 47.7534 68.2842C46.5973 68.6823 45.3942 68.8814 44.1442 68.8814ZM44.921 65.8289C45.6375 65.8289 46.3239 65.7109 46.9802 65.475C47.6518 65.239 48.2742 64.8999 48.8474 64.4575C49.4206 64.0151 49.9083 63.4916 50.3106 62.887C50.7282 62.2824 51.0335 61.6115 51.2267 60.8741C51.4198 60.1368 51.466 59.4659 51.3652 58.8613C51.2797 58.2567 51.0663 57.7332 50.7248 57.2908C50.3987 56.8484 49.9616 56.5092 49.4137 56.2733C48.8657 56.0374 48.2335 55.9194 47.517 55.9194C46.8006 55.9194 46.1066 56.0374 45.435 56.2733C44.7787 56.5092 44.1639 56.8484 43.5907 57.2908C43.0175 57.7332 42.5221 58.2567 42.1046 58.8613C41.7023 59.4659 41.4046 60.1368 41.2114 60.8741C41.0221 61.5967 40.9683 62.2677 41.0499 62.887C41.1507 63.4916 41.3642 64.0151 41.6904 64.4575C42.0318 64.8999 42.4765 65.239 43.0244 65.475C43.5724 65.7109 44.2046 65.8289 44.921 65.8289ZM58.8247 68.6159L62.1161 56.0521H56.9941L57.759 53.1323H71.7072L70.9423 56.0521H65.8203L62.529 68.6159H58.8247ZM69.644 68.6159L73.7003 53.1323H81.5204C83.5326 53.1323 84.9451 53.501 85.7581 54.2383C86.5863 54.9756 86.842 55.9489 86.5252 57.1581C86.3127 57.9691 85.9215 58.6769 85.3515 59.2815C84.7854 59.8714 84.1016 60.3285 83.3002 60.653C82.4987 60.9774 81.6331 61.1396 80.7032 61.1396L81.3752 60.2327C82.3813 60.2327 83.2306 60.3949 83.923 60.7193C84.6194 61.029 85.0998 61.4935 85.3644 62.1128C85.6442 62.7322 85.6663 63.4916 85.4306 64.3911C85.083 65.7183 84.2695 66.7579 82.9901 67.51C81.7146 68.2473 80.0251 68.6159 77.9214 68.6159H69.644ZM74.0323 65.9174H78.354C79.3144 65.9174 80.0771 65.7699 80.6421 65.475C81.2263 65.1653 81.6053 64.6787 81.7792 64.0151C81.9491 63.3663 81.8232 62.887 81.4012 62.5773C80.9984 62.2529 80.3168 62.0907 79.3565 62.0907H74.7604L75.4442 59.4806H79.4C80.2994 59.4806 81.024 59.3332 81.5738 59.0382C82.1427 58.7286 82.5083 58.2641 82.6706 57.6447C82.829 57.0401 82.7029 56.5903 82.2923 56.2954C81.9009 55.9858 81.2555 55.8309 80.3561 55.8309H76.6747L74.0323 65.9174ZM85.0247 68.6159L96.2151 53.1323H99.8736L102.974 68.6159H99.0872L96.8146 54.9461H98.278L88.8204 68.6159H85.0247ZM89.4609 65.298L91.1569 62.5773H99.3886L99.682 65.298H89.4609ZM104.635 68.6159L108.691 53.1323H112.396L109.104 65.6962H117.13L116.365 68.6159H104.635ZM132.501 68.8814C131.266 68.8814 130.166 68.6897 129.199 68.3063C128.251 67.9081 127.484 67.3478 126.896 66.6252C126.307 65.9026 125.92 65.0547 125.733 64.0815C125.561 63.1082 125.627 62.0391 125.933 60.8741C126.238 59.7092 126.731 58.6401 127.413 57.6668C128.11 56.6936 128.942 55.8457 129.909 55.1231C130.891 54.4005 131.958 53.8475 133.11 53.4641C134.266 53.066 135.469 52.8669 136.719 52.8669C138.107 52.8669 139.295 53.1029 140.284 53.5747C141.292 54.0319 142.06 54.7102 142.586 55.6097L139.652 57.7332C139.261 57.1286 138.769 56.6788 138.176 56.3839C137.586 56.0742 136.895 55.9194 136.103 55.9194C135.356 55.9194 134.639 56.0374 133.952 56.2733C133.265 56.5092 132.635 56.8484 132.062 57.2908C131.489 57.7332 130.993 58.2567 130.576 58.8613C130.173 59.4659 129.876 60.1368 129.683 60.8741C129.489 61.6115 129.436 62.2824 129.521 62.887C129.622 63.4916 129.843 64.0151 130.184 64.4575C130.526 64.8999 130.978 65.239 131.541 65.475C132.105 65.7109 132.76 65.8289 133.507 65.8289C134.299 65.8289 135.07 65.6814 135.818 65.3865C136.569 65.0768 137.301 64.6123 138.012 63.993L139.834 66.1164C138.836 67.016 137.711 67.7017 136.459 68.1736C135.223 68.6454 133.904 68.8814 132.501 68.8814ZM141.68 68.6159L145.737 53.1323H149.441L146.15 65.6962H154.175L153.411 68.6159H141.68ZM162.343 68.8814C160.072 68.8814 158.456 68.2694 157.497 67.0455C156.537 65.8215 156.354 64.0741 156.949 61.8032L159.221 53.1323H162.925L160.688 61.6704C160.302 63.1451 160.336 64.2068 160.791 64.8556C161.246 65.5045 162.038 65.8289 163.166 65.8289C164.294 65.8289 165.255 65.5045 166.05 64.8556C166.845 64.2068 167.436 63.1451 167.822 61.6704L170.059 53.1323H173.718L171.446 61.8032C170.851 64.0741 169.753 65.8215 168.152 67.0455C166.551 68.2694 164.615 68.8814 162.343 68.8814ZM173.322 68.6159L177.378 53.1323H185.198C187.21 53.1323 188.623 53.501 189.436 54.2383C190.264 54.9756 190.52 55.9489 190.203 57.1581C189.991 57.9691 189.599 58.6769 189.029 59.2815C188.463 59.8714 187.78 60.3285 186.978 60.653C186.177 60.9774 185.311 61.1396 184.381 61.1396L185.053 60.2327C186.059 60.2327 186.909 60.3949 187.601 60.7193C188.297 61.029 188.778 61.4935 189.042 62.1128C189.322 62.7322 189.344 63.4916 189.109 64.3911C188.761 65.7183 187.947 66.7579 186.668 67.51C185.393 68.2473 183.703 68.6159 181.599 68.6159H173.322ZM177.71 65.9174H182.032C182.992 65.9174 183.755 65.7699 184.32 65.475C184.904 65.1653 185.283 64.6787 185.457 64.0151C185.627 63.3663 185.501 62.887 185.079 62.5773C184.676 62.2529 183.995 62.0907 183.034 62.0907H178.438L179.122 59.4806H183.078C183.977 59.4806 184.702 59.3332 185.252 59.0382C185.821 58.7286 186.186 58.2641 186.348 57.6447C186.507 57.0401 186.381 56.5903 185.97 56.2954C185.579 55.9858 184.933 55.8309 184.034 55.8309H180.353L177.71 65.9174ZM195.996 68.8814C194.715 68.8814 193.531 68.7192 192.442 68.3947C191.357 68.0556 190.526 67.6206 189.948 67.0897L191.913 64.3911C192.475 64.863 193.181 65.2538 194.03 65.5635C194.898 65.8584 195.812 66.0059 196.772 66.0059C197.504 66.0059 198.108 65.9395 198.585 65.8068C199.081 65.6593 199.468 65.4602 199.747 65.2096C200.026 64.9589 200.209 64.6713 200.293 64.3469C200.402 63.934 200.319 63.6096 200.045 63.3736C199.776 63.123 199.386 62.9239 198.876 62.7764C198.369 62.6142 197.798 62.4667 197.162 62.334C196.545 62.1866 195.929 62.0096 195.312 61.8032C194.711 61.5967 194.178 61.3313 193.714 61.0069C193.25 60.6824 192.913 60.2548 192.701 59.7239C192.505 59.1931 192.515 58.5147 192.731 57.6889C192.963 56.8042 193.418 56.0005 194.095 55.2779C194.791 54.5406 195.69 53.9581 196.793 53.5305C197.915 53.0881 199.231 52.8669 200.74 52.8669C201.746 52.8669 202.706 52.9849 203.62 53.2208C204.537 53.442 205.31 53.7812 205.937 54.2383L204.081 56.959C203.442 56.5461 202.775 56.2438 202.078 56.0521C201.385 55.8457 200.68 55.7424 199.964 55.7424C199.247 55.7424 198.639 55.8235 198.139 55.9858C197.64 56.148 197.256 56.3618 196.988 56.6272C196.724 56.8779 196.548 57.1728 196.459 57.512C196.355 57.9101 196.437 58.2346 196.707 58.4852C196.981 58.7212 197.373 58.9129 197.883 59.0604C198.393 59.2078 198.956 59.3553 199.573 59.5027C200.205 59.6502 200.824 59.8198 201.429 60.0115C202.05 60.2032 202.592 60.4612 203.056 60.7857C203.519 61.1101 203.85 61.5377 204.046 62.0686C204.257 62.5995 204.257 63.2704 204.044 64.0815C203.817 64.9515 203.356 65.7478 202.664 66.4704C201.972 67.1929 201.065 67.7754 199.943 68.2178C198.836 68.6602 197.52 68.8814 195.996 68.8814Z" fill="white"/>
</svg>
