<svg width="25" height="24" viewBox="0 0 25 24" fill="none" xmlns="http://www.w3.org/2000/svg">
<path d="M3.30001 5.19984L7.50001 7.99984L11.686 2.13984C11.7785 2.01021 11.9006 1.90454 12.0422 1.83164C12.1838 1.75874 12.3408 1.7207 12.5 1.7207C12.6593 1.7207 12.8162 1.75874 12.9578 1.83164C13.0994 1.90454 13.2215 2.01021 13.314 2.13984L17.5 7.99984L21.7 5.19984C21.859 5.09408 22.0449 5.03604 22.2358 5.03257C22.4266 5.0291 22.6145 5.08035 22.7772 5.18026C22.9399 5.28017 23.0706 5.42456 23.1539 5.59637C23.2371 5.76819 23.2694 5.96024 23.247 6.14984L21.604 20.1168C21.5753 20.3601 21.4584 20.5844 21.2754 20.7471C21.0923 20.9099 20.8559 20.9998 20.611 20.9998H4.38901C4.14407 20.9998 3.90767 20.9099 3.72464 20.7471C3.5416 20.5844 3.42466 20.3601 3.39601 20.1168L1.75301 6.14884C1.73081 5.95932 1.76329 5.76741 1.84663 5.59576C1.92996 5.4241 2.06067 5.27987 2.22332 5.1801C2.38597 5.08032 2.57377 5.02916 2.76455 5.03266C2.95533 5.03616 3.14113 5.09417 3.30001 5.19984ZM12.5 14.9998C13.0304 14.9998 13.5391 14.7891 13.9142 14.4141C14.2893 14.039 14.5 13.5303 14.5 12.9998C14.5 12.4694 14.2893 11.9607 13.9142 11.5856C13.5391 11.2106 13.0304 10.9998 12.5 10.9998C11.9696 10.9998 11.4609 11.2106 11.0858 11.5856C10.7107 11.9607 10.5 12.4694 10.5 12.9998C10.5 13.5303 10.7107 14.039 11.0858 14.4141C11.4609 14.7891 11.9696 14.9998 12.5 14.9998Z" fill="#FFE600"/>
</svg>
