<svg width="25" height="24" viewBox="0 0 25 24" fill="none" xmlns="http://www.w3.org/2000/svg">
<path d="M4.25 12H7.25C7.78043 12 8.28914 12.2107 8.66421 12.5858C9.03929 12.9609 9.25 13.4696 9.25 14V19C9.25 19.5304 9.03929 20.0391 8.66421 20.4142C8.28914 20.7893 7.78043 21 7.25 21H4.25C3.71957 21 3.21086 20.7893 2.83579 20.4142C2.46071 20.0391 2.25 19.5304 2.25 19V12C2.25 6.477 6.727 2 12.25 2C17.773 2 22.25 6.477 22.25 12V19C22.25 19.5304 22.0393 20.0391 21.6642 20.4142C21.2891 20.7893 20.7804 21 20.25 21H17.25C16.7196 21 16.2109 20.7893 15.8358 20.4142C15.4607 20.0391 15.25 19.5304 15.25 19V14C15.25 13.4696 15.4607 12.9609 15.8358 12.5858C16.2109 12.2107 16.7196 12 17.25 12H20.25C20.25 9.87827 19.4071 7.84344 17.9069 6.34315C16.4066 4.84285 14.3717 4 12.25 4C10.1283 4 8.09344 4.84285 6.59315 6.34315C5.09285 7.84344 4.25 9.87827 4.25 12Z" fill="white"/>
</svg>
