<svg width="25" height="24" viewBox="0 0 25 24" fill="none" xmlns="http://www.w3.org/2000/svg">
<path d="M12.25 22C6.727 22 2.25 17.523 2.25 12C2.25 6.477 6.727 2 12.25 2C17.773 2 22.25 6.477 22.25 12C22.25 17.523 17.773 22 12.25 22ZM11.25 15V17H13.25V15H11.25ZM13.25 13.355C14.0537 13.1128 14.7436 12.59 15.1942 11.8817C15.6447 11.1735 15.8259 10.3271 15.7047 9.49647C15.5836 8.66588 15.1681 7.90644 14.534 7.35646C13.8999 6.80647 13.0894 6.50254 12.25 6.5C11.4409 6.49994 10.6567 6.78015 10.0308 7.29299C9.40492 7.80583 8.97601 8.51963 8.817 9.313L10.779 9.706C10.8347 9.42743 10.9683 9.1704 11.1644 8.96482C11.3604 8.75923 11.6108 8.61354 11.8864 8.54471C12.162 8.47587 12.4515 8.48671 12.7212 8.57597C12.9909 8.66523 13.2297 8.82924 13.4098 9.04891C13.59 9.26858 13.704 9.53489 13.7387 9.81684C13.7734 10.0988 13.7273 10.3848 13.6058 10.6416C13.4843 10.8984 13.2923 11.1154 13.0523 11.2673C12.8123 11.4193 12.5341 11.5 12.25 11.5C11.9848 11.5 11.7304 11.6054 11.5429 11.7929C11.3554 11.9804 11.25 12.2348 11.25 12.5V14H13.25V13.355Z" fill="white"/>
</svg>
